<svg xmlns="http://www.w3.org/2000/svg" viewBox="0 0 1083.92 228.23">
  <defs>
    <style>
      .cls-1 {
        fill: #fff;
        stroke: #444;
      }

      .cls-1, .cls-2 {
        stroke-miterlimit: 10;
        stroke-width: 8px;
      }

      .cls-2, .cls-4 {
        fill: #fb5042;
      }

      .cls-2 {
        stroke: #fb5042;
      }

      .cls-3 {
        fill: #444;
      }
    </style>
  </defs>
  <title>sendjet-logotipo-white</title>
  <g id="Capa_2" data-name="Capa 2">
    <g id="sendjet-logotipo">
      <g id="texto">
        <path class="cls-1" d="M222.93,189l5.89-27.75h75.89c2.53,0,4.38-.49,5.58-1.47s2.06-2.8,2.62-5.47l4.21-19.76a10,10,0,0,0,.21-2.31c0-2.53-1.83-3.79-5.47-3.79H255.73q-8.62,0-12.51-3.68t-3.89-10.4a36.11,36.11,0,0,1,.63-6.1l7.78-36.79q2.73-12.61,9.25-18.71t20.39-6.1h88.51l-5.67,27.12H284.74c-2.24,0-3.85.5-4.83,1.47s-1.76,2.74-2.32,5.26l-4,18.71c-.14.56-.25,1-.32,1.47a7.64,7.64,0,0,0-.1,1.26q0,3.17,4.62,3.16h57q8.82,0,12.72,3.78t3.89,10.51a30.1,30.1,0,0,1-.63,5.89l-8.2,38.89q-2.74,12.61-9.25,18.71T313.12,189Z"/>
        <path class="cls-1" d="M377.24,189q-9,0-12.93-3.05t-3.88-9.56a43.92,43.92,0,0,1,1.05-8.2l13.66-64.75q2.31-10.73,7.67-15.77t16.93-5h71.9c5.32,0,9.15,1,11.46,3s3.47,5.08,3.47,9.15a37.7,37.7,0,0,1-.85,7.77l-8.83,41.84H406.05l3.57-17.66h42.89l3.15-14.29a14.44,14.44,0,0,0,.21-2.74,2.57,2.57,0,0,0-.94-2.31,6.76,6.76,0,0,0-3.47-.63H409.2c-2.39,0-4,.39-4.84,1.16s-1.54,2.34-2.1,4.73l-9.88,45.83c-.14.7-.25,1.29-.31,1.78a8.58,8.58,0,0,0-.11,1.37,2.7,2.7,0,0,0,1.05,2.52,8,8,0,0,0,3.79.63h71.69L463.44,189Z"/>
        <path class="cls-1" d="M573.6,189l15.77-75.05a20.65,20.65,0,0,0,.42-2.53q0-3.36-5.26-3.36H540.6a7.48,7.48,0,0,0-4.63,1.16q-1.47,1.16-2.31,4.73L517.89,189H488.46L511,82.58h28.38l-2.52,11.57q7.58-11.57,20.81-11.57h47.73q8.61,0,12.51,3t3.89,9.88a39.51,39.51,0,0,1-.84,8L602.83,189Z"/>
        <path class="cls-1" d="M644.45,189q-8.84,0-12.72-3.05t-3.89-9.56a44.79,44.79,0,0,1,1-8.2l13.67-64.75q2.31-10.73,8.3-15.77t16.08-5h50.25L711.72,108H676.61c-2.24,0-3.82.39-4.73,1.16s-1.64,2.35-2.2,4.73l-9,43.09a17.34,17.34,0,0,0-.42,2.74q0,3.15,4.83,3.15h45.62L737.16,38H766.8L734.85,189Z"/>
        <path class="cls-2" d="M752.09,189l6.09-28.8h57.4q4.83,0,6.41-1.58t2.63-6l16.61-78.21H816.42l5.88-27.75h56.77L854.26,164.15q-2.73,12.61-9.25,18.71T825,189Z"/>
        <path class="cls-1" d="M890.21,189q-9,0-12.93-3.05t-3.89-9.56a44.79,44.79,0,0,1,1.05-8.2l13.67-64.75q2.31-10.73,7.67-15.77t16.93-5h71.9q8,0,11.45,3t3.47,9.15a37.67,37.67,0,0,1-.84,7.77l-8.83,41.84H919l3.58-17.66h42.88l3.16-14.29a14.44,14.44,0,0,0,.21-2.74,2.58,2.58,0,0,0-1-2.31,6.74,6.74,0,0,0-3.47-.63H922.17c-2.39,0-4,.39-4.84,1.16s-1.54,2.34-2.1,4.73l-9.88,45.83c-.14.7-.25,1.29-.32,1.78a9.82,9.82,0,0,0-.1,1.37,2.68,2.68,0,0,0,1.05,2.52,8,8,0,0,0,3.78.63h71.69l-5,24.18Z"/>
        <path class="cls-1" d="M1021.4,189q-8.83,0-12.72-3.05t-3.89-9.56a43.92,43.92,0,0,1,1.05-8.2l24.39-115.21h29.43l-6.31,29.64H1079l-4.84,23.13h-25.64L1037,160.16a18.44,18.44,0,0,0-.42,2.73c0,2,1.54,2.94,4.63,2.94h19.34L1055.66,189Z"/>
      </g>
      <g id="poligono">
        <polygon class="cls-3" points="185 56.3 185 170.92 92.5 228.23 0 170.92 0 56.3 26.14 72.39 26.14 153.83 92.5 195.05 158.86 153.83 158.86 72.39 185 56.3"/>
        <polygon class="cls-4" points="0 56.3 92.5 0 185 56.3 158.86 72.39 92.5 31.17 26.14 72.39 0 56.3"/>
      </g>
    </g>
  </g>
</svg>
